<svg xmlns="http://www.w3.org/2000/svg" viewBox="0 0 24 17"><path d="M23.763 6.886c-.065-.053-.673-.512-1.954-.512-.32 0-.659.03-.97.095a5.74 5.74 0 00-.96-3.842l-.196-.282-.29.183a3.627 3.627 0 00-1.306 1.498c-.415.927-.504 2.21.101 3.47-.37.183-.96.397-1.818.397H.494l-.055.278a8.48 8.48 0 00.437 3.624c.374.992.946 1.752 1.708 2.247C3.5 14.586 5.01 15 6.617 15c.914 0 1.815-.094 2.672-.282a10.475 10.475 0 003.655-1.62 9.847 9.847 0 002.647-3.48h.23c1.467 0 2.367-.588 2.863-1.08.32-.31.562-.686.72-1.077l.1-.272-.74-.303zM2.5 6.5h2v2h-2v-2zm2.5 0h2v2H5v-2zm-5 0h2v2H0v-2zm7.5 0h2v2h-2v-2zm2.5 0h2v2h-2v-2zm-5-2.5h2v2H5V4zm2.5 0h2v2h-2V4zm0-2.5h2V4h-2V1.5zm2.5 2.5h2v2h-2V4z" fill="#2496ED"/></svg>
