<svg xmlns="http://www.w3.org/2000/svg" viewBox="0 0 256 289"><path d="M128 288.464c-3.975 0-7.685-1.06-11.13-2.915l-35.247-20.936c-5.3-2.915-2.65-3.975-1.06-4.505 7.155-2.385 8.48-2.915 15.9-7.155.795-.53 1.855-.265 2.65.265l27.032 16.166c1.06.53 2.385.53 3.18 0l105.74-61.092c1.06-.53 1.59-1.59 1.59-2.915V83.192c0-1.325-.53-2.385-1.59-2.915L128.795 19.185c-1.06-.53-2.385-.53-3.18 0L19.875 80.277c-1.06.53-1.59 1.855-1.59 2.915v122.184c0 1.06.53 2.385 1.59 2.915l28.887 16.696c15.635 7.95 25.44-1.325 25.44-10.6V94.557c0-1.59 1.325-3.18 3.18-3.18h13.516c1.59 0 3.18 1.325 3.18 3.18v119.835c0 20.936-11.395 32.596-31.271 32.596-6.095 0-10.865 0-24.38-6.625L11.66 224.967C4.505 220.992 0 213.307 0 205.091V82.907c0-8.215 4.505-15.9 11.66-19.876L122.17 1.94c6.89-3.975 16.166-3.975 23.057 0l110.51 61.092c7.155 3.975 11.66 11.66 11.66 19.876v122.184c0 8.215-4.505 15.9-11.66 19.876l-110.51 61.092c-3.445 1.59-7.155 2.385-11.13 2.385h-.795zm34.187-84.08c-48.81 0-58.88-22.261-58.88-41.077 0-1.59 1.325-3.18 3.18-3.18h13.78c1.59 0 2.915 1.06 2.915 2.65 2.12 14.045 8.215 20.936 39.27 20.936 24.115 0 34.452-5.565 34.452-18.55 0-7.42-2.915-13.045-41.077-16.76-31.8-3.18-51.46-10.07-51.46-35.246 0-23.322 19.61-37.367 52.47-37.367 36.837 0 55.122 12.72 57.507 40.282.001 1.59-1.324 3.18-2.914 3.18h-13.78c-1.325 0-2.65-1.06-2.915-2.385-3.71-15.9-12.72-21.2-37.897-21.2-27.827 0-31.006 9.8-31.006 17.22 0 8.745 3.975 11.395 39.8 16.43 35.51 4.77 52.735 11.66 52.735 35.51 0 25.175-20.935 39.75-57.242 39.75h-.93z" fill="#339933"/></svg>
