<svg xmlns="http://www.w3.org/2000/svg" viewBox="0 0 54 33"><path fill-rule="evenodd" clip-rule="evenodd" d="M27 0C19.8 0 15.3 3.6 13.5 10.8 16.2 7.2 19.35 5.85 22.95 6.75c2.025.506 3.472 1.973 5.07 3.59C30.612 12.965 33.3 15.75 39 15.75c7.2 0 11.7-3.6 13.5-10.8-2.7 3.6-5.85 4.95-9.45 4.05-2.025-.506-3.472-1.973-5.07-3.59C35.388 2.785 32.7 0 27 0zM13.5 15.75C6.3 15.75 1.8 19.35 0 26.55c2.7-3.6 5.85-4.95 9.45-4.05 2.025.506 3.472 1.973 5.07 3.59 2.588 2.625 5.276 5.41 10.98 5.41 7.2 0 11.7-3.6 13.5-10.8-2.7 3.6-5.85 4.95-9.45 4.05-2.025-.506-3.472-1.973-5.07-3.59-2.588-2.625-5.276-5.41-10.98-5.41z" fill="#06B6D4"/></svg>
