<svg xmlns="http://www.w3.org/2000/svg" viewBox="0 0 400 400"><rect width="400" height="400" rx="50" fill="#3178C6"/><path d="M87.6 200.7V217h52v148h36.9V217h52v-16.3c0-9 0-16.5-.4-16.7-.2-.1-32.3-.2-71.1-.2l-70.7.1.3 16.8zm230.7-17.1c6.4 1.8 11.2 4.7 15.6 9.4 2.3 2.5 5.7 7.1 6 8.1.1.4-10.8 7.6-17.4 11.6-.2.1-1-.9-1.8-2.3-2.7-3.8-5.5-5.4-9.8-5.7-6.3-.4-10.4 2.9-10.4 8.2 0 1.6.2 2.6.8 3.9 1.3 2.8 3.6 4.4 13.7 9.5 17 7.2 24.3 12 28.8 18.8 5 7.6 6.1 19.8 2.6 29-3.8 10-13.2 16.8-26.5 19.1-4.1.7-14 .6-18.4-.2-9.7-1.8-18.9-7.4-24.5-15.1-2.3-3.1-6.7-11.3-6.4-11.9.1-.1 1-.6 2-1.2l7.9-4.6 6.1-3.5 1.3 1.9c1.8 2.8 5.6 6.6 7.9 7.9 6.6 3.5 15.7 3 20.2-1.1 2.3-2 3.2-4.1 3.2-7.2 0-2.8-.4-4-1.8-6-1.8-2.5-5.5-4.7-15.7-9.1-11.8-5-16.9-8.2-21.3-13.2-2.7-3-5.2-8.1-6.2-12.4-.9-3.8-.7-13.4.3-17.2 3.2-12.3 12.8-20.7 26.5-23 4.5-.7 15-.4 19.8.9z" fill="white"/></svg>
